HIERARCHY
ROOT Hips
{
	OFFSET -0.001795 -0.223333 0.028219
	CHANNELS 6 Xposition Yposition Zposition Zrotation Yrotation Xrotation 
	JOINT LeftUpLeg
	{
		OFFSET 0.069520 -0.091406 -0.006815
		CHANNELS 3 Zrotation Yrotation Xrotation
		JOINT LeftLeg
		{
			OFFSET 0.034277 -0.375199 -0.004496
			CHANNELS 3 Zrotation Yrotation Xrotation
			JOINT LeftFoot
			{
				OFFSET -0.013596 -0.397961 -0.043693
				CHANNELS 3 Zrotation Yrotation Xrotation
				JOINT LeftToe
				{
					OFFSET 0.026358 -0.055791 0.119288
					CHANNELS 3 Zrotation Yrotation Xrotation
					End Site
					{
						OFFSET 0.000000 0.000000 0.000000
					}
				}
			}
		}
	}
	JOINT RightUpLeg
	{
		OFFSET -0.067670 -0.090522 -0.004320
		CHANNELS 3 Zrotation Yrotation Xrotation
		JOINT RightLeg
		{
			OFFSET -0.038290 -0.382569 -0.008850
			CHANNELS 3 Zrotation Yrotation Xrotation
			JOINT RightFoot
			{
				OFFSET 0.015774 -0.398415 -0.042312
				CHANNELS 3 Zrotation Yrotation Xrotation
				JOINT RightToe
				{
					OFFSET -0.025372 -0.048144 0.123348
					CHANNELS 3 Zrotation Yrotation Xrotation
					End Site
					{
						OFFSET 0.000000 0.000000 0.000000
					}
				}
			}
		}
	}
	JOINT Spine
	{
		OFFSET -0.002533 0.108963 -0.026696
		CHANNELS 3 Zrotation Yrotation Xrotation
		JOINT Spine1
		{
			OFFSET 0.005487 0.135180 0.001092
			CHANNELS 3 Zrotation Yrotation Xrotation
			JOINT Spine2
			{
				OFFSET 0.001457 0.052922 0.025425
				CHANNELS 3 Zrotation Yrotation Xrotation
				JOINT Neck
				{
					OFFSET -0.002778 0.213870 -0.042857
					CHANNELS 3 Zrotation Yrotation Xrotation
					JOINT Head
					{
						OFFSET 0.005152 0.064970 0.051349
						CHANNELS 3 Zrotation Yrotation Xrotation
						End Site
						{
							OFFSET 0.000000 0.000000 0.000000
						}
					}
				}
				JOINT LeftShoulder
				{
					OFFSET 0.078845 0.121749 -0.034090
					CHANNELS 3 Zrotation Yrotation Xrotation
					JOINT LeftArm
					{
						OFFSET 0.090977 0.030469 -0.008868
						CHANNELS 3 Zrotation Yrotation Xrotation
						JOINT LeftForeArm
						{
							OFFSET 0.259612 -0.012772 -0.027456
							CHANNELS 3 Zrotation Yrotation Xrotation
							JOINT LeftHand
							{
								OFFSET 0.249234 0.008986 -0.001171
								CHANNELS 3 Zrotation Yrotation Xrotation
								End Site
								{
									OFFSET 0.000000 0.000000 0.000000
								}
							}
						}
					}
				}
				JOINT RightShoulder
				{
					OFFSET -0.081759 0.118833 -0.038615
					CHANNELS 3 Zrotation Yrotation Xrotation
					JOINT RightArm
					{
						OFFSET -0.096012 0.032551 -0.009143
						CHANNELS 3 Zrotation Yrotation Xrotation
						JOINT RightForeArm
						{
							OFFSET -0.253742 -0.013329 -0.021401
							CHANNELS 3 Zrotation Yrotation Xrotation
							JOINT RightHand
							{
								OFFSET -0.255298 0.007772 -0.005559
								CHANNELS 3 Zrotation Yrotation Xrotation
								End Site
								{
									OFFSET 0.000000 0.000000 0.000000
								}
							}
						}
					}
				}
			}
		}
	}
}
MOTION
Frames: 16
Frame Time: 0.050000
0.017707 0.969696 -0.002351 0.362645 -2.125332 4.007259 -1.204587 0.069348 0.459046 -0.307932 0.386922 -10.686962 9.351055 19.351417 23.879916 0.000000 0.000000 0.000000 -5.346759 0.456932 -4.822265 3.087305 -0.363798 -4.791337 -4.149978 -14.227582 20.119767 0.000000 0.000000 0.000000 4.747590 -2.625260 32.400090 -5.925008 1.924346 -25.548162 -3.284964 5.626483 26.977718 14.131564 -3.865703 -36.701889 0.000000 0.000000 0.000000 -23.774968 -27.470601 13.610799 -34.687827 -18.168468 -0.700785 -0.128033 -20.932405 0.730787 0.000000 0.000000 0.000000 33.599901 9.144926 6.415634 39.860872 18.477300 -0.851046 -1.641168 25.965547 0.809650 0.000000 0.000000 0.000000 
0.017841 0.969898 -0.001013 0.177561 -2.417880 4.942076 -1.225877 -0.061503 -0.824228 0.011526 0.375433 -10.477542 9.743232 19.795713 24.354323 0.000000 0.000000 0.000000 -5.185391 0.530420 -5.871454 3.233070 -0.370520 -5.004421 -4.114572 -14.269831 20.508302 0.000000 0.000000 0.000000 4.777450 -2.707672 33.524460 -6.067903 1.934468 -25.768323 -2.995787 5.910612 27.124356 13.852995 -3.706606 -36.707969 0.000000 0.000000 0.000000 -24.346760 -27.836146 13.941361 -33.758981 -18.622934 -0.604768 0.510066 -20.786080 0.609746 0.000000 0.000000 0.000000 33.857276 9.262507 6.599955 38.743414 18.768925 -0.843935 -1.830019 26.352453 0.775057 0.000000 0.000000 0.000000 
0.017419 0.969983 0.000788 0.107794 -2.580333 5.773216 -1.177276 -0.159436 -1.786870 0.137830 0.367823 -10.314905 9.696803 19.717901 24.273377 0.000000 0.000000 0.000000 -5.073698 0.600472 -6.876672 3.166030 -0.363676 -4.904016 -3.982106 -14.086727 20.438530 0.000000 0.000000 0.000000 4.818850 -2.781873 34.379179 -6.127116 1.936361 -25.753761 -3.013659 5.704209 26.781961 13.969689 -3.900898 -36.105482 0.000000 0.000000 0.000000 -24.972061 -27.790523 14.163023 -32.818721 -18.748532 -0.602172 0.796702 -20.413546 0.550385 0.000000 0.000000 0.000000 34.434550 9.799664 6.899811 37.105363 18.664662 -0.876973 -1.447850 27.143170 0.848611 0.000000 0.000000 0.000000 
0.016611 0.969651 0.003145 0.020363 -2.741411 6.452483 -0.950721 -0.233487 -2.518280 0.086599 0.367183 -10.236987 9.877663 19.915611 24.638728 0.000000 0.000000 0.000000 -4.967691 0.656331 -7.633181 3.261942 -0.367182 -4.969963 -3.891939 -14.018942 20.749263 0.000000 0.000000 0.000000 4.941344 -2.873992 35.127733 -6.190794 1.932975 -25.983955 -3.002564 5.567578 26.852012 13.710193 -3.860354 -35.789134 0.000000 0.000000 0.000000 -25.194820 -27.931518 14.408373 -32.163897 -19.166811 -0.549756 1.130988 -20.219034 0.487718 0.000000 0.000000 0.000000 34.564390 9.807079 6.824813 36.458974 18.435762 -0.945967 -1.187808 28.104000 0.937047 0.000000 0.000000 0.000000 
0.015562 0.969341 0.006051 -0.099491 -2.990849 6.760265 -0.693432 -0.271743 -2.902039 -0.148000 0.364770 -9.989947 10.033897 20.076225 24.499579 0.000000 0.000000 0.000000 -4.839611 0.693717 -8.105557 3.318913 -0.364438 -4.606802 -3.759581 -13.817371 20.449410 0.000000 0.000000 0.000000 4.962652 -2.887876 35.524734 -6.140690 1.911435 -26.057910 -2.988976 5.306068 26.627009 13.657129 -3.959206 -35.396602 0.000000 0.000000 0.000000 -25.357289 -27.584713 14.370952 -31.583448 -18.993193 -0.631469 1.038140 -20.321357 0.506545 0.000000 0.000000 0.000000 34.992850 9.864446 6.711262 35.444070 17.978661 -1.043199 -0.329442 28.924365 1.147069 0.000000 0.000000 0.000000 
0.014792 0.968828 0.009212 -0.195484 -3.234386 7.068743 -0.432193 -0.316967 -3.376930 -0.325011 0.350598 -9.437076 10.415180 20.510594 24.584961 0.000000 0.000000 0.000000 -4.606624 0.729672 -8.498731 3.278560 -0.357149 -4.326426 -3.597203 -13.593436 20.325951 0.000000 0.000000 0.000000 4.992189 -2.879152 35.571090 -6.030261 1.885504 -25.755823 -2.907209 5.048996 26.244013 13.330901 -3.850791 -35.316357 0.000000 0.000000 0.000000 -25.125461 -27.344097 14.308712 -31.509619 -18.816588 -0.682952 1.206654 -20.718087 0.489180 0.000000 0.000000 0.000000 35.244596 9.909578 6.568493 34.787476 17.485449 -1.111644 0.517194 29.175080 1.338268 0.000000 0.000000 0.000000 
0.014567 0.968238 0.012440 -0.234489 -3.514778 7.153475 -0.224448 -0.349404 -3.731787 -0.588095 0.341541 -8.894099 10.441425 20.519387 24.128651 0.000000 0.000000 0.000000 -4.635418 0.751547 -8.792445 3.485370 -0.361316 -3.644830 -3.473997 -13.375464 19.849386 0.000000 0.000000 0.000000 5.078992 -2.879004 35.592100 -6.012589 1.876269 -25.749137 -2.727972 4.909906 26.095411 13.307350 -3.904762 -35.187923 0.000000 0.000000 0.000000 -25.004656 -27.243531 14.321916 -31.195055 -18.869429 -0.695890 1.006146 -20.922203 0.529036 0.000000 0.000000 0.000000 35.267274 10.042255 6.521398 34.388622 16.898913 -1.215467 1.033675 29.011358 1.430145 0.000000 0.000000 0.000000 
0.014834 0.967560 0.015543 -0.176016 -3.927308 7.235733 -0.359964 -0.385069 -4.090867 -0.514925 0.317435 -8.224495 10.546088 20.614056 23.628526 0.000000 0.000000 0.000000 -4.881828 0.761937 -8.974576 3.824106 -0.376527 -3.338036 -3.434740 -13.341478 19.620363 0.000000 0.000000 0.000000 4.977898 -2.766927 35.217333 -5.738995 1.818997 -25.416965 -2.613130 5.029957 26.067952 13.077369 -3.742686 -35.494353 0.000000 0.000000 0.000000 -24.655564 -27.057096 14.173238 -31.505724 -18.799499 -0.716499 1.402326 -21.437999 0.473917 0.000000 0.000000 0.000000 35.290492 10.163009 6.567973 33.959457 16.618236 -1.277466 1.456254 28.459543 1.482327 0.000000 0.000000 0.000000 
0.015338 0.966994 0.018517 -0.062194 -4.035289 7.135787 -0.379407 -0.398945 -4.232565 -0.716405 0.304841 -7.569856 10.514257 20.586594 22.783423 0.000000 0.000000 0.000000 -5.168197 0.754477 -8.975868 4.052290 -0.389282 -3.053044 -3.552235 -13.505942 19.417662 0.000000 0.000000 0.000000 5.049173 -2.752914 34.877337 -5.595666 1.786769 -25.460509 -2.480816 5.201315 26.173882 13.043316 -3.705079 -35.526553 0.000000 0.000000 0.000000 -24.343535 -26.977890 14.027578 -31.863819 -18.656362 -0.742947 1.389589 -21.916141 0.489470 0.000000 0.000000 0.000000 35.053564 10.020429 6.500604 34.060381 16.328760 -1.363582 1.773683 27.691149 1.505401 0.000000 0.000000 0.000000 
0.015845 0.966787 0.021247 0.094166 -4.014704 6.924999 -0.288876 -0.393505 -4.184980 -1.041286 0.311083 -7.247945 10.167536 20.157963 22.439601 0.000000 0.000000 0.000000 -5.357672 0.734729 -8.772976 4.159778 -0.396292 -2.759854 -3.489557 -13.386661 19.324928 0.000000 0.000000 0.000000 5.006214 -2.677908 34.020515 -5.159736 1.703882 -24.939386 -2.598054 5.414102 25.942710 13.033092 -3.592196 -35.894178 0.000000 0.000000 0.000000 -24.296397 -26.844454 13.845448 -32.314471 -18.214602 -0.802065 1.362423 -22.596156 0.512629 0.000000 0.000000 0.000000 35.219028 9.988279 6.576141 34.103090 15.613976 -1.540837 1.979924 27.490270 1.535562 0.000000 0.000000 0.000000 
0.016464 0.967277 0.023758 0.102453 -3.859276 6.822587 -0.030496 -0.406231 -4.368198 -1.263536 0.310203 -6.818430 10.072062 20.054834 22.285631 0.000000 0.000000 0.000000 -5.361915 0.712734 -8.448495 4.133541 -0.395977 -2.626711 -3.546226 -13.455582 19.365794 0.000000 0.000000 0.000000 5.072587 -2.677868 33.475969 -5.186189 1.707725 -25.340541 -2.242085 5.435414 26.452055 12.950275 -3.444634 -36.536084 0.000000 0.000000 0.000000 -24.349055 -26.673725 13.736935 -32.705556 -17.833823 -0.910218 1.289182 -23.058169 0.540616 0.000000 0.000000 0.000000 34.791853 9.785211 6.445119 34.770678 15.596171 -1.583024 2.096472 27.042621 1.543853 0.000000 0.000000 0.000000 
0.017429 0.968353 0.026034 0.096787 -3.659186 6.809917 0.147897 -0.415685 -4.509652 -1.408523 0.312327 -6.623961 9.616034 19.494456 22.134572 0.000000 0.000000 0.000000 -5.328306 0.699818 -8.256069 3.968933 -0.386625 -2.623201 -3.443416 -13.287593 19.521446 0.000000 0.000000 0.000000 5.162834 -2.645382 32.279102 -4.962959 1.666678 -25.119108 -2.273085 5.591899 26.503430 12.913202 -3.300552 -37.034113 0.000000 0.000000 0.000000 -24.151372 -26.210805 13.328609 -33.380092 -17.091157 -1.065945 0.928653 -23.892658 0.637939 0.000000 0.000000 0.000000 34.750863 9.437435 6.291610 35.058414 15.307167 -1.682862 2.037658 26.922171 1.532188 0.000000 0.000000 0.000000 
0.019049 0.969812 0.028634 0.153949 -3.442575 6.648269 0.272978 -0.403185 -4.394968 -1.544634 0.315157 -6.457980 9.279338 19.086863 22.131288 0.000000 0.000000 0.000000 -5.335730 0.671101 -7.836724 3.816455 -0.378702 -2.726560 -3.315605 -13.071304 19.641820 0.000000 0.000000 0.000000 5.241281 -2.593847 30.987665 -5.053446 1.696791 -25.042059 -2.131100 5.606670 26.791277 12.685900 -3.188595 -37.078017 0.000000 0.000000 0.000000 -24.379701 -25.657366 12.997471 -34.074611 -16.181351 -1.298950 0.638587 -24.691900 0.728790 0.000000 0.000000 0.000000 34.485079 8.915802 5.933171 35.698796 14.744167 -1.857306 2.557099 27.210159 1.682572 0.000000 0.000000 0.000000 
0.021468 0.971192 0.031863 0.166692 -3.354000 6.239750 0.258403 -0.354240 -3.843162 -1.614218 0.321290 -6.556552 8.854940 18.552107 22.092608 0.000000 0.000000 0.000000 -5.304889 0.628957 -7.188525 3.734284 -0.375202 -2.871813 -3.174408 -12.843811 19.695373 0.000000 0.000000 0.000000 5.373897 -2.491668 29.073418 -5.173618 1.733634 -24.843066 -2.066623 5.678023 27.164062 12.361268 -3.010153 -37.279994 0.000000 0.000000 0.000000 -24.365720 -24.660653 12.350276 -35.212713 -15.071393 -1.618192 -0.338562 -25.410210 0.975410 0.000000 0.000000 0.000000 34.491026 8.367156 5.567563 36.256733 14.006349 -2.094654 3.009406 27.619246 1.830862 0.000000 0.000000 0.000000 
0.024355 0.971931 0.035930 0.162177 -3.022065 5.487516 0.329450 -0.277463 -2.996560 -1.772587 0.323675 -6.307221 8.583740 18.235825 21.623085 0.000000 0.000000 0.000000 -5.245232 0.555918 -6.104138 3.513655 -0.366093 -3.161261 -3.125597 -12.720221 19.732847 0.000000 0.000000 0.000000 5.562285 -2.449955 27.695899 -5.385116 1.789690 -25.121973 -1.989334 5.601322 27.708831 11.970122 -2.869164 -37.133257 0.000000 0.000000 0.000000 -24.389429 -23.763357 11.771537 -36.239735 -13.986011 -1.963184 -0.945476 -26.166659 1.153778 0.000000 0.000000 0.000000 34.116646 7.502653 4.962499 37.405344 13.473549 -2.312592 3.383085 28.015270 1.983866 0.000000 0.000000 0.000000 
0.027362 0.971997 0.040501 0.249824 -2.760518 4.783531 0.252734 -0.182055 -1.936401 -1.974128 0.336594 -6.407967 8.328185 17.928957 21.258350 0.000000 0.000000 0.000000 -5.345599 0.474789 -4.840460 3.353770 -0.359888 -3.351543 -2.967302 -12.371922 19.411076 0.000000 0.000000 0.000000 5.726645 -2.354136 25.911366 -5.730898 1.881908 -24.910962 -1.996725 5.345285 27.729133 11.728419 -2.793203 -37.048940 0.000000 0.000000 0.000000 -24.331292 -22.679553 11.121266 -37.153815 -12.968433 -2.284805 -1.972032 -26.520937 1.417934 0.000000 0.000000 0.000000 34.188916 6.840732 4.416013 38.274583 12.799735 -2.511827 3.950016 28.298651 2.162706 0.000000 0.000000 0.000000 
